<svg version="1.2" baseProfile="tiny" xmlns="http://www.w3.org/2000/svg" width="89" height="50"><path fill-rule="evenodd" fill="#F15622" d="M14.294 19.559c-2.004-.085-4.008-.489-5.905-1.064-1.566-.475-3.188-1.108-4.604-1.933-.561-.327-2.658-1.637-3.129-2.004-.299-.232-.817-.435-.606-.901.227-.498 1.159-.459 1.601-.468 1.543-.028 2.995-.138 4.508-.476 1.953-.436 3.832-1.123 5.657-1.934 3.491-1.552 6.886-3.318 10.368-4.895 7.671-3.474 16.282-4.662 24.361-1.806 1.23.435 2.448.923 3.617 1.499.528.26 3.293 1.75 1.313 1.968-1.019.112-2.132-.005-3.155-.068-4.496-.277-8.997-.731-13.497-.234-2.008.221-4.019.694-5.821 1.623-.873.45-3.197 1.717-2.722 3.034.42 1.167 2.287 1.096 3.272 1.079 1.543-.028 3.035-.178 4.576.107.891.165 2.883.558 3.154 1.602.346 1.332-1.74 1.164-2.479 1.164-1.145.001-2.258.012-3.39.214a78.407 78.407 0 0 0-5.773 1.26c-2.871.743-5.712 1.797-8.67 2.141a16.83 16.83 0 0 1-2.676.092z"/><path fill-rule="evenodd" fill="#756753" d="M75.166.12c1.991.23 3.96.78 5.81 1.493 1.525.588 3.097 1.338 4.449 2.263.534.367 2.529 1.827 2.972 2.228.281.253.783.493.538.942-.262.48-1.191.374-1.63.35-1.542-.084-2.997-.081-4.53.145-1.98.292-3.905.84-5.786 1.516-3.597 1.293-7.113 2.806-10.702 4.124-7.906 2.904-16.582 3.46-24.428.022a33.23 33.23 0 0 1-3.497-1.759c-.508-.297-3.155-1.986-1.163-2.059 1.023-.038 2.125.16 3.142.298 4.464.604 8.917 1.387 13.442 1.22 2.018-.075 4.06-.399 5.926-1.194.903-.385 3.314-1.479 2.938-2.827-.332-1.194-2.199-1.26-3.184-1.315-1.542-.085-3.04-.044-4.556-.441-.876-.229-2.834-.767-3.026-1.828-.247-1.353 1.819-1.034 2.559-.98 1.14.082 2.25.152 3.394.033a77.239 77.239 0 0 0 5.85-.835C66.603.985 69.513.141 72.49.014c.89-.038 1.784.002 2.676.106z"/><g fill="#FFF"><path d="M15.607 40.824c-1.153 0-2.133-.119-2.941-.355a14.536 14.536 0 0 1-2.279-.876V36.96h.148a7.715 7.715 0 0 0 2.371 1.514c.882.356 1.733.535 2.551.535 1.168 0 2.051-.242 2.648-.728.597-.484.897-1.123.897-1.916 0-.63-.157-1.144-.471-1.539-.313-.396-.811-.69-1.495-.882-.49-.142-.939-.258-1.345-.35a70.973 70.973 0 0 1-1.527-.372 7.245 7.245 0 0 1-1.473-.542 4.137 4.137 0 0 1-1.153-.86 3.693 3.693 0 0 1-.763-1.226c-.182-.471-.273-1.014-.273-1.63 0-1.28.502-2.354 1.506-3.223 1.003-.866 2.285-1.3 3.843-1.3.89 0 1.732.089 2.525.266s1.528.428 2.205.754v2.516h-.16c-.506-.46-1.154-.861-1.943-1.204a6.156 6.156 0 0 0-2.489-.515c-.982 0-1.775.228-2.381.684-.604.456-.907 1.057-.907 1.8 0 .673.178 1.207.534 1.604.356.396.872.687 1.548.87.449.121.997.257 1.644.409.648.152 1.186.292 1.612.419 1.096.333 1.896.835 2.402 1.508.505.673.758 1.501.758 2.484a4.69 4.69 0 0 1-.379 1.826 4.28 4.28 0 0 1-1.062 1.529 5.598 5.598 0 0 1-1.735 1.061c-.642.249-1.448.372-2.416.372zM25.863 40.538l5.359-15.809h2.604l5.36 15.809h-2.231l-1.441-4.417H29.44l-1.441 4.417h-2.136zm9.064-6.212l-2.456-7.453-2.445 7.453h4.901zM57.6 32.649c0 1.444-.294 2.746-.881 3.907-.587 1.16-1.376 2.066-2.365 2.718-.804.503-1.62.839-2.45 1.009-.829.169-1.888.255-3.176.255h-3.661V24.729h3.619c1.493 0 2.667.11 3.517.334.852.223 1.575.529 2.173.919a6.816 6.816 0 0 1 2.382 2.681c.56 1.114.842 2.443.842 3.986zm-2.2-.032c0-1.217-.203-2.256-.608-3.115a4.585 4.585 0 0 0-1.805-2.013 6.106 6.106 0 0 0-1.804-.731c-.642-.149-1.438-.225-2.392-.225H47.18v12.199h1.612c.939 0 1.761-.074 2.466-.223a5.274 5.274 0 0 0 1.932-.828 4.625 4.625 0 0 0 1.656-1.979c.37-.824.554-1.853.554-3.085zM68.699 40.824c-1.153 0-2.133-.119-2.942-.355a14.574 14.574 0 0 1-2.279-.876V36.96h.15a7.713 7.713 0 0 0 2.368 1.514c.884.356 1.734.535 2.553.535 1.168 0 2.05-.242 2.648-.728.597-.484.896-1.123.896-1.916 0-.63-.157-1.144-.47-1.539-.313-.396-.811-.69-1.495-.882a23.585 23.585 0 0 0-1.345-.35 71.085 71.085 0 0 1-1.526-.372 7.233 7.233 0 0 1-1.474-.542 4.118 4.118 0 0 1-1.152-.86c-.328-.346-.583-.755-.765-1.226s-.272-1.014-.272-1.63c0-1.28.503-2.354 1.506-3.223 1.004-.866 2.285-1.3 3.844-1.3.889 0 1.731.089 2.524.266s1.528.428 2.205.754v2.516h-.16c-.506-.46-1.152-.861-1.943-1.204a6.141 6.141 0 0 0-2.486-.515c-.983 0-1.776.228-2.382.684s-.907 1.057-.907 1.8c0 .673.178 1.207.533 1.604.356.396.872.687 1.549.87.448.121.997.257 1.644.409a29.23 29.23 0 0 1 1.613.419c1.096.333 1.896.835 2.401 1.508.505.673.758 1.501.758 2.484 0 .615-.126 1.225-.379 1.826a4.283 4.283 0 0 1-1.063 1.529 5.593 5.593 0 0 1-1.734 1.061c-.644.249-1.451.372-2.418.372z"/></g><g fill="#FFF"><path d="M12.162 49.987a3.06 3.06 0 0 1-.86-.104 4.173 4.173 0 0 1-.667-.256v-.771h.044c.204.19.436.339.693.443.258.104.507.156.746.156.342 0 .6-.071.775-.213a.689.689 0 0 0 .262-.562.704.704 0 0 0-.137-.45c-.091-.115-.237-.201-.438-.257a7.38 7.38 0 0 0-.394-.103 17.417 17.417 0 0 1-.447-.109 2.135 2.135 0 0 1-.431-.158 1.22 1.22 0 0 1-.337-.251 1.103 1.103 0 0 1-.223-.359 1.325 1.325 0 0 1-.08-.477c0-.374.147-.688.44-.943.293-.253.668-.38 1.125-.38.26 0 .506.026.738.077.232.052.447.125.645.221v.736h-.046a2.064 2.064 0 0 0-.569-.353 1.79 1.79 0 0 0-.728-.149c-.287 0-.52.066-.696.199a.63.63 0 0 0-.266.526c0 .196.053.354.157.469a.922.922 0 0 0 .453.256c.131.034.292.074.482.119.189.044.346.086.471.122.321.098.555.245.703.441.148.196.222.439.222.727 0 .181-.037.358-.11.534a1.265 1.265 0 0 1-.311.447c-.15.135-.319.238-.508.311-.189.076-.425.111-.708.111zM17.806 49.903h-.619V47.64h-2.139v2.264h-.618V45.28h.618v1.814h2.139V45.28h.619v4.623zM18.247 49.903l1.568-4.624h.762l1.568 4.624h-.653l-.422-1.291h-1.776l-.422 1.291h-.625zm2.651-1.816l-.718-2.181-.715 2.181h1.433zM26.187 49.903h-.803l-1.474-1.838h-.706v1.838h-.618v-4.624h1.199c.267 0 .49.015.67.044.18.028.352.096.514.201.162.104.291.237.385.401.095.163.142.366.142.608 0 .34-.086.623-.259.852a1.526 1.526 0 0 1-.706.506l1.656 2.012zm-1.338-3.323a.822.822 0 0 0-.072-.357.61.61 0 0 0-.222-.257.855.855 0 0 0-.306-.123 2.297 2.297 0 0 0-.434-.035h-.613v1.745h.544c.177 0 .336-.016.477-.047a.742.742 0 0 0 .363-.191.804.804 0 0 0 .198-.312c.044-.119.065-.261.065-.423zM26.555 49.903v-4.624h2.908v.547h-2.289v1.268h2.132v.546h-2.132v1.718h2.289v.546h-2.908zM31.639 49.903l1.568-4.624h.762l1.568 4.624h-.652l-.422-1.291h-1.778l-.421 1.291h-.625zm2.652-1.816l-.718-2.181-.716 2.181h1.434zM36.706 49.903v-4.077h-1.562v-.547h3.742v.547h-1.562v4.077h-.618zM45.02 47.597c0 .422-.086.803-.258 1.143a2.02 2.02 0 0 1-.69.795 2.223 2.223 0 0 1-.718.296 4.847 4.847 0 0 1-.93.073h-1.071V45.28h1.059c.438 0 .781.033 1.029.097.249.066.462.156.637.27.299.197.531.459.696.784.164.325.246.714.246 1.166zm-.644-.01c0-.355-.059-.659-.179-.911a1.328 1.328 0 0 0-.527-.589c-.164-.1-.34-.171-.527-.215s-.42-.064-.699-.064h-.472v3.568h.472c.275 0 .515-.022.721-.064.206-.044.396-.125.565-.243a1.34 1.34 0 0 0 .483-.579c.109-.242.163-.543.163-.903zM48.979 45.811c.178.203.314.454.413.755.097.3.146.643.146 1.027 0 .375-.048.714-.144 1.017a2.048 2.048 0 0 1-.416.76c-.189.216-.41.375-.662.478a2.23 2.23 0 0 1-.836.152c-.314 0-.597-.053-.849-.158a1.709 1.709 0 0 1-.65-.473 2.103 2.103 0 0 1-.412-.757 3.35 3.35 0 0 1-.145-1.02c0-.388.05-.73.146-1.025a2.23 2.23 0 0 1 .413-.757c.179-.205.396-.361.648-.467.253-.108.535-.161.848-.161.317 0 .602.056.856.165.256.11.471.265.644.464zm-.083 1.782c0-.306-.033-.577-.1-.813a1.706 1.706 0 0 0-.281-.587c-.123-.159-.271-.278-.445-.358s-.368-.12-.585-.12c-.225 0-.421.039-.589.117a1.222 1.222 0 0 0-.445.361 1.666 1.666 0 0 0-.283.594 3.064 3.064 0 0 0-.099.807c0 .607.129 1.071.385 1.394.257.321.601.482 1.031.482s.773-.161 1.028-.482c.255-.324.383-.788.383-1.395zM53.505 45.811c.177.203.314.454.413.755.098.3.146.643.146 1.027 0 .375-.048.714-.144 1.017a2.048 2.048 0 0 1-.416.76 1.734 1.734 0 0 1-.663.478c-.252.101-.53.152-.834.152-.314 0-.599-.053-.849-.158a1.712 1.712 0 0 1-.651-.473 2.103 2.103 0 0 1-.412-.757 3.35 3.35 0 0 1-.144-1.02c0-.388.049-.73.146-1.025.097-.293.234-.546.413-.757.179-.205.395-.361.648-.467.253-.108.536-.161.849-.161.316 0 .601.056.855.165.254.11.468.265.643.464zm-.083 1.782c0-.306-.034-.577-.101-.813a1.705 1.705 0 0 0-.28-.587c-.123-.159-.271-.278-.445-.358s-.369-.12-.586-.12c-.226 0-.421.039-.589.117a1.222 1.222 0 0 0-.445.361c-.123.158-.217.355-.282.594s-.099.507-.099.807c0 .607.127 1.071.385 1.394.256.321.599.482 1.03.482.431 0 .774-.161 1.03-.482.254-.324.382-.788.382-1.395zM58.344 49.903h-.803l-1.474-1.838h-.706v1.838h-.619v-4.624h1.2c.267 0 .49.015.67.044.18.028.352.096.514.201.162.104.291.237.386.401.095.163.143.366.143.608 0 .34-.088.623-.26.852a1.524 1.524 0 0 1-.707.506l1.656 2.012zm-1.337-3.323a.852.852 0 0 0-.071-.357.61.61 0 0 0-.222-.257.868.868 0 0 0-.307-.123 2.3 2.3 0 0 0-.435-.035h-.611v1.745h.543c.177 0 .337-.016.479-.047a.743.743 0 0 0 .362-.191.816.816 0 0 0 .198-.312 1.25 1.25 0 0 0 .064-.423zM62.008 49.987a3.06 3.06 0 0 1-.86-.104 4.148 4.148 0 0 1-.668-.256v-.771h.044c.204.19.436.339.693.443.259.104.507.156.747.156.341 0 .6-.071.774-.213a.677.677 0 0 0 .262-.559.71.71 0 0 0-.136-.45c-.093-.115-.239-.201-.438-.257a8.192 8.192 0 0 0-.393-.103c-.12-.027-.269-.063-.447-.109a2.167 2.167 0 0 1-.432-.158 1.22 1.22 0 0 1-.337-.251 1.103 1.103 0 0 1-.223-.359 1.303 1.303 0 0 1-.08-.477c0-.374.146-.688.44-.943.294-.253.668-.38 1.125-.38.26 0 .506.026.738.077.232.052.447.125.645.221v.736h-.047c-.147-.135-.337-.252-.568-.353s-.473-.149-.728-.149c-.287 0-.52.066-.697.199a.63.63 0 0 0-.265.526c0 .196.052.354.155.469a.927.927 0 0 0 .453.256c.131.034.292.074.481.119.189.044.347.086.472.122.321.098.555.245.703.441s.222.439.222.727a1.363 1.363 0 0 1-.422.981c-.15.135-.319.238-.508.311a1.957 1.957 0 0 1-.705.108zM65.362 49.903v-4.077H63.8v-.547h3.742v.547H65.98v4.077h-.618zM68.01 49.903v-4.624h2.908v.547h-2.289v1.268h2.133v.546h-2.133v1.718h2.289v.546H68.01zM74.535 46.675c0 .2-.035.39-.107.569a1.355 1.355 0 0 1-.298.458 1.58 1.58 0 0 1-.566.357c-.216.081-.489.121-.82.121h-.525v1.723H71.6v-4.624h1.168c.273 0 .509.022.703.068.193.046.364.118.512.221.173.117.309.268.406.448.097.182.146.401.146.659zm-.643.015a.984.984 0 0 0-.082-.418.706.706 0 0 0-.252-.288 1.003 1.003 0 0 0-.343-.137 2.512 2.512 0 0 0-.484-.04h-.513v1.848h.422c.25 0 .452-.021.606-.061s.281-.112.384-.217a.863.863 0 0 0 .2-.304c.04-.108.062-.236.062-.383z"/></g></svg>